<svg viewBox="0 0 330 200" xmlns="http://www.w3.org/2000/svg"><g><g><g><g><g><line x1="39.15625" y1="176" x2="34.15625" y2="176" style="visibility: inherit;" fill="rgb(0, 0, 0)" stroke="rgb(204, 204, 204)" stroke-width="1px"></line><line x1="39.15625" y1="158.4" x2="34.15625" y2="158.4" style="visibility: inherit;" fill="rgb(0, 0, 0)" stroke="rgb(204, 204, 204)" stroke-width="1px"></line><line x1="39.15625" y1="140.8" x2="34.15625" y2="140.8" style="visibility: inherit;" fill="rgb(0, 0, 0)" stroke="rgb(204, 204, 204)" stroke-width="1px"></line><line x1="39.15625" y1="123.2" x2="34.15625" y2="123.2" style="visibility: inherit;" fill="rgb(0, 0, 0)" stroke="rgb(204, 204, 204)" stroke-width="1px"></line><line x1="39.15625" y1="105.60000000000001" x2="34.15625" y2="105.60000000000001" style="visibility: inherit;" fill="rgb(0, 0, 0)" stroke="rgb(204, 204, 204)" stroke-width="1px"></line><line x1="39.15625" y1="88" x2="34.15625" y2="88" style="visibility: inherit;" fill="rgb(0, 0, 0)" stroke="rgb(204, 204, 204)" stroke-width="1px"></line><line x1="39.15625" y1="70.39999999999998" x2="34.15625" y2="70.39999999999998" style="visibility: inherit;" fill="rgb(0, 0, 0)" stroke="rgb(204, 204, 204)" stroke-width="1px"></line><line x1="39.15625" y1="52.80000000000001" x2="34.15625" y2="52.80000000000001" style="visibility: inherit;" fill="rgb(0, 0, 0)" stroke="rgb(204, 204, 204)" stroke-width="1px"></line><line x1="39.15625" y1="35.19999999999999" x2="34.15625" y2="35.19999999999999" style="visibility: inherit;" fill="rgb(0, 0, 0)" stroke="rgb(204, 204, 204)" stroke-width="1px"></line><line x1="39.15625" y1="17.600000000000023" x2="34.15625" y2="17.600000000000023" style="visibility: inherit;" fill="rgb(0, 0, 0)" stroke="rgb(204, 204, 204)" stroke-width="1px"></line><line x1="39.15625" y1="0" x2="34.15625" y2="0" style="visibility: inherit;" fill="rgb(0, 0, 0)" stroke="rgb(204, 204, 204)" stroke-width="1px"></line></g><g transform="translate(29.15625, 0)"><text x="0" y="176" dx="0em" dy="0.3em" style="text-anchor: end; visibility: hidden; font-family: &quot;Helvetica Neue&quot;, sans-serif; font-size: 12px; font-weight: 200;" fill="rgb(33, 33, 33)" stroke="none" stroke-width="1px">0.6</text><text x="0" y="158.4" dx="0em" dy="0.3em" style="text-anchor: end; visibility: inherit; font-family: &quot;Helvetica Neue&quot;, sans-serif; font-size: 12px; font-weight: 200;" fill="rgb(33, 33, 33)" stroke="none" stroke-width="1px">0.8</text><text x="0" y="140.8" dx="0em" dy="0.3em" style="text-anchor: end; visibility: hidden; font-family: &quot;Helvetica Neue&quot;, sans-serif; font-size: 12px; font-weight: 200;" fill="rgb(33, 33, 33)" stroke="none" stroke-width="1px">1</text><text x="0" y="123.2" dx="0em" dy="0.3em" style="text-anchor: end; visibility: inherit; font-family: &quot;Helvetica Neue&quot;, sans-serif; font-size: 12px; font-weight: 200;" fill="rgb(33, 33, 33)" stroke="none" stroke-width="1px">1.2</text><text x="0" y="105.60000000000001" dx="0em" dy="0.3em" style="text-anchor: end; visibility: hidden; font-family: &quot;Helvetica Neue&quot;, sans-serif; font-size: 12px; font-weight: 200;" fill="rgb(33, 33, 33)" stroke="none" stroke-width="1px">1.4</text><text x="0" y="88" dx="0em" dy="0.3em" style="text-anchor: end; visibility: inherit; font-family: &quot;Helvetica Neue&quot;, sans-serif; font-size: 12px; font-weight: 200;" fill="rgb(33, 33, 33)" stroke="none" stroke-width="1px">1.6</text><text x="0" y="70.39999999999998" dx="0em" dy="0.3em" style="text-anchor: end; visibility: hidden; font-family: &quot;Helvetica Neue&quot;, sans-serif; font-size: 12px; font-weight: 200;" fill="rgb(33, 33, 33)" stroke="none" stroke-width="1px">1.8</text><text x="0" y="52.80000000000001" dx="0em" dy="0.3em" style="text-anchor: end; visibility: inherit; font-family: &quot;Helvetica Neue&quot;, sans-serif; font-size: 12px; font-weight: 200;" fill="rgb(33, 33, 33)" stroke="none" stroke-width="1px">2</text><text x="0" y="35.19999999999999" dx="0em" dy="0.3em" style="text-anchor: end; visibility: hidden; font-family: &quot;Helvetica Neue&quot;, sans-serif; font-size: 12px; font-weight: 200;" fill="rgb(33, 33, 33)" stroke="none" stroke-width="1px">2.2</text><text x="0" y="17.600000000000023" dx="0em" dy="0.3em" style="text-anchor: end; visibility: inherit; font-family: &quot;Helvetica Neue&quot;, sans-serif; font-size: 12px; font-weight: 200;" fill="rgb(33, 33, 33)" stroke="none" stroke-width="1px">2.4</text><text x="0" y="0" dx="0em" dy="0.3em" style="text-anchor: end; visibility: hidden; font-family: &quot;Helvetica Neue&quot;, sans-serif; font-size: 12px; font-weight: 200;" fill="rgb(33, 33, 33)" stroke="none" stroke-width="1px">2.6</text></g><line x1="39.15625" y1="0" x2="39.15625" y2="176" fill="rgb(0, 0, 0)" stroke="rgb(204, 204, 204)" stroke-width="1px"></line></g></g><g transform="translate(39, 0)" clip-path="url(#clip_0)"><clipPath id="clip_0"><rect width="290" height="176"></rect></clipPath><g><g><g><line x1="0" y1="0" x2="0" y2="176" fill="rgb(0, 0, 0)" stroke="rgb(66, 66, 66)" stroke-width="1px" opacity="0.25"></line><line x1="26.44034090909091" y1="0" x2="26.44034090909091" y2="176" fill="rgb(0, 0, 0)" stroke="rgb(66, 66, 66)" stroke-width="1px" opacity="0.25"></line><line x1="52.88068181818182" y1="0" x2="52.88068181818182" y2="176" fill="rgb(0, 0, 0)" stroke="rgb(66, 66, 66)" stroke-width="1px" opacity="0.25"></line><line x1="79.32102272727272" y1="0" x2="79.32102272727272" y2="176" fill="rgb(0, 0, 0)" stroke="rgb(66, 66, 66)" stroke-width="1px" opacity="0.25"></line><line x1="105.76136363636364" y1="0" x2="105.76136363636364" y2="176" fill="rgb(0, 0, 0)" stroke="rgb(66, 66, 66)" stroke-width="1px" opacity="0.25"></line><line x1="132.20170454545453" y1="0" x2="132.20170454545453" y2="176" fill="rgb(0, 0, 0)" stroke="rgb(66, 66, 66)" stroke-width="1px" opacity="0.25"></line><line x1="158.64204545454544" y1="0" x2="158.64204545454544" y2="176" fill="rgb(0, 0, 0)" stroke="rgb(66, 66, 66)" stroke-width="1px" opacity="0.25"></line><line x1="185.08238636363637" y1="0" x2="185.08238636363637" y2="176" fill="rgb(0, 0, 0)" stroke="rgb(66, 66, 66)" stroke-width="1px" opacity="0.25"></line><line x1="211.52272727272728" y1="0" x2="211.52272727272728" y2="176" fill="rgb(0, 0, 0)" stroke="rgb(66, 66, 66)" stroke-width="1px" opacity="0.25"></line><line x1="237.9630681818182" y1="0" x2="237.9630681818182" y2="176" fill="rgb(0, 0, 0)" stroke="rgb(66, 66, 66)" stroke-width="1px" opacity="0.25"></line><line x1="264.40340909090907" y1="0" x2="264.40340909090907" y2="176" fill="rgb(0, 0, 0)" stroke="rgb(66, 66, 66)" stroke-width="1px" opacity="0.25"></line><line x1="290.84375" y1="0" x2="290.84375" y2="176" fill="rgb(0, 0, 0)" stroke="rgb(66, 66, 66)" stroke-width="1px" opacity="0.25"></line></g><g><line x1="0" y1="176" x2="290.84375" y2="176" fill="rgb(0, 0, 0)" stroke="rgb(66, 66, 66)" stroke-width="1px" opacity="0.25"></line><line x1="0" y1="158.4" x2="290.84375" y2="158.4" fill="rgb(0, 0, 0)" stroke="rgb(66, 66, 66)" stroke-width="1px" opacity="0.25"></line><line x1="0" y1="140.8" x2="290.84375" y2="140.8" fill="rgb(0, 0, 0)" stroke="rgb(66, 66, 66)" stroke-width="1px" opacity="0.25"></line><line x1="0" y1="123.2" x2="290.84375" y2="123.2" fill="rgb(0, 0, 0)" stroke="rgb(66, 66, 66)" stroke-width="1px" opacity="0.25"></line><line x1="0" y1="105.60000000000001" x2="290.84375" y2="105.60000000000001" fill="rgb(0, 0, 0)" stroke="rgb(66, 66, 66)" stroke-width="1px" opacity="0.25"></line><line x1="0" y1="88" x2="290.84375" y2="88" fill="rgb(0, 0, 0)" stroke="rgb(66, 66, 66)" stroke-width="1px" opacity="0.25"></line><line x1="0" y1="70.39999999999998" x2="290.84375" y2="70.39999999999998" fill="rgb(0, 0, 0)" stroke="rgb(66, 66, 66)" stroke-width="1px" opacity="0.25"></line><line x1="0" y1="52.80000000000001" x2="290.84375" y2="52.80000000000001" fill="rgb(0, 0, 0)" stroke="rgb(66, 66, 66)" stroke-width="1px" opacity="0.25"></line><line x1="0" y1="35.19999999999999" x2="290.84375" y2="35.19999999999999" fill="rgb(0, 0, 0)" stroke="rgb(66, 66, 66)" stroke-width="1px" opacity="0.25"></line><line x1="0" y1="17.600000000000023" x2="290.84375" y2="17.600000000000023" fill="rgb(0, 0, 0)" stroke="rgb(66, 66, 66)" stroke-width="1px" opacity="0.25"></line><line x1="0" y1="0" x2="290.84375" y2="0" fill="rgb(0, 0, 0)" stroke="rgb(66, 66, 66)" stroke-width="1px" opacity="0.25"></line></g></g></g><g><g><line x1="0" y1="228.8" x2="290.84375" y2="228.8" fill="rgb(0, 0, 0)" stroke="rgb(153, 153, 153)" stroke-width="1.5px"></line></g></g><g><g><line x1="26.44034090909091" y1="0" x2="26.44034090909091" y2="176" fill="rgb(0, 0, 0)" stroke="rgb(153, 153, 153)" stroke-width="1.5px"></line></g></g><g><g><g><g><g><path stroke="rgb(255, 112, 67)" stroke-width="2px" d="M29.084375,9.403597640991222L31.72840909090909,44.8947780609131L34.372443181818184,60.412067222595226L37.01647727272727,70.27613334655763L39.66051136363636,77.76455001831056L42.304545454545455,83.15036182403566L44.94857954545454,114.01286582946777L47.59261363636364,115.64996891021728L50.236647727272725,116.84388332366943L52.88068181818182,117.8283145904541L55.52471590909091,118.80112247467041L58.16875,119.8795373916626L60.81278409090908,128.6326053619385L63.45681818181818,127.94072036743164L66.10085227272727,128.39123134613038L68.74488636363637,128.9828489303589L71.38892045454546,129.46905879974366L74.03295454545454,129.99844722747804L76.67698863636363,134.41433601379396L79.32102272727272,134.30352573394777L81.96505681818181,134.80288009643556L84.60909090909091,135.34887485504152L87.253125,135.70678691864015L89.89715909090908,135.83501129150392L92.54119318181819,140.5703332901001L95.18522727272727,139.62351016998292L97.82926136363636,139.3736598968506L100.47329545454545,139.91385345458986L103.11732954545455,140.19055919647218L105.76136363636364,140.31824855804444L108.40539772727273,143.8164408683777L111.04943181818182,143.41445856094361L113.69346590909092,143.4049122810364L116.3375,143.10647563934327L118.9815340909091,143.36901407241822L121.62556818181817,143.52605562210084L124.26960227272727,145.70647315979005L126.91363636363636,145.9857752799988L129.55767045454544,146.00986127853395L132.20170454545453,145.99045400619508L134.84573863636362,146.0672805786133L137.48977272727274,146.17129306793214L140.13380681818182,148.80559425354005L142.7778409090909,147.79401903152467L145.421875,148.20519094467164L148.0659090909091,148.1789281845093L150.70994318181818,148.30123071670533L153.35397727272726,148.42874698638917L155.99801136363638,151.62859706878663L158.64204545454544,150.5032952308655L161.28607954545456,150.1747982978821L163.93011363636361,150.18812637329103L166.57414772727273,150.34541444778444L169.21818181818182,150.25457267761232L171.8622159090909,152.15778617858888L174.50625,152.6432197570801L177.1502840909091,152.64293127059938L179.79431818181817,152.56497173309327L182.4383522727273,152.28397541046144L185.08238636363637,152.187668132782L187.72642045454546,152.1385467529297L190.37045454545455,154.04436712265016L193.01448863636367,154.15979318618776L195.65852272727273,154.1289408683777L198.3025568181818,153.99207763671876L200.9465909090909,153.85123853683473L203.590625,153.79308490753175L206.2346590909091,156.45025520324708L208.87869318181816,155.9199541091919L211.52272727272728,155.75635080337526L214.16676136363637,155.62162761688234L216.81079545454546,155.5253465652466L219.45482954545454,155.27138404846193L222.09886363636363,158.4290364265442L224.74289772727272,157.9148853302002L227.38693181818184,157.36275892257692L230.0309659090909,156.89141921997071L232.675,156.9150016784668L235.3190340909091,156.67297201156617L237.9630681818182,158.9797046661377L240.60710227272727,158.72239046096803L243.25113636363633,158.21117143630983L245.89517045454545,158.3366315841675L248.53920454545454,158.15650062561036L251.18323863636363,158.10009889602662L253.8272727272727,159.32455615997316L256.4713068181818,159.82479696273805L259.1153409090909,159.80193309783937L261.75937500000003,159.6281593322754L264.40340909090907,159.5724657058716L267.0474431818182,159.28282527923585" style="fill: none;" fill="none"></path></g></g></g></g></g></g><g transform="translate(39, 176)" clip-path="url(#clip_1)"><clipPath id="clip_1"><rect width="290" height="24"></rect></clipPath><g><g><line x1="0" y1="0" x2="0" y2="5" style="visibility: inherit;" fill="rgb(0, 0, 0)" stroke="rgb(204, 204, 204)" stroke-width="1px"></line><line x1="26.44034090909091" y1="0" x2="26.44034090909091" y2="5" style="visibility: inherit;" fill="rgb(0, 0, 0)" stroke="rgb(204, 204, 204)" stroke-width="1px"></line><line x1="52.88068181818182" y1="0" x2="52.88068181818182" y2="5" style="visibility: inherit;" fill="rgb(0, 0, 0)" stroke="rgb(204, 204, 204)" stroke-width="1px"></line><line x1="79.32102272727272" y1="0" x2="79.32102272727272" y2="5" style="visibility: inherit;" fill="rgb(0, 0, 0)" stroke="rgb(204, 204, 204)" stroke-width="1px"></line><line x1="105.76136363636364" y1="0" x2="105.76136363636364" y2="5" style="visibility: inherit;" fill="rgb(0, 0, 0)" stroke="rgb(204, 204, 204)" stroke-width="1px"></line><line x1="132.20170454545453" y1="0" x2="132.20170454545453" y2="5" style="visibility: inherit;" fill="rgb(0, 0, 0)" stroke="rgb(204, 204, 204)" stroke-width="1px"></line><line x1="158.64204545454544" y1="0" x2="158.64204545454544" y2="5" style="visibility: inherit;" fill="rgb(0, 0, 0)" stroke="rgb(204, 204, 204)" stroke-width="1px"></line><line x1="185.08238636363637" y1="0" x2="185.08238636363637" y2="5" style="visibility: inherit;" fill="rgb(0, 0, 0)" stroke="rgb(204, 204, 204)" stroke-width="1px"></line><line x1="211.52272727272728" y1="0" x2="211.52272727272728" y2="5" style="visibility: inherit;" fill="rgb(0, 0, 0)" stroke="rgb(204, 204, 204)" stroke-width="1px"></line><line x1="237.9630681818182" y1="0" x2="237.9630681818182" y2="5" style="visibility: inherit;" fill="rgb(0, 0, 0)" stroke="rgb(204, 204, 204)" stroke-width="1px"></line><line x1="264.40340909090907" y1="0" x2="264.40340909090907" y2="5" style="visibility: inherit;" fill="rgb(0, 0, 0)" stroke="rgb(204, 204, 204)" stroke-width="1px"></line><line x1="290.84375" y1="0" x2="290.84375" y2="5" style="visibility: inherit;" fill="rgb(0, 0, 0)" stroke="rgb(204, 204, 204)" stroke-width="1px"></line></g><g transform="translate(0, 8)"><text x="0" y="0" dx="0em" dy="0.95em" style="text-anchor: middle; visibility: hidden; font-family: &quot;Helvetica Neue&quot;, sans-serif; font-size: 12px; font-weight: 200;" fill="rgb(33, 33, 33)" stroke="none" stroke-width="1px">-500</text><text x="26.44034090909091" y="0" dx="0em" dy="0.95em" style="text-anchor: middle; visibility: inherit; font-family: &quot;Helvetica Neue&quot;, sans-serif; font-size: 12px; font-weight: 200;" fill="rgb(33, 33, 33)" stroke="none" stroke-width="1px">0</text><text x="52.88068181818182" y="0" dx="0em" dy="0.95em" style="text-anchor: middle; visibility: inherit; font-family: &quot;Helvetica Neue&quot;, sans-serif; font-size: 12px; font-weight: 200;" fill="rgb(33, 33, 33)" stroke="none" stroke-width="1px">500</text><text x="79.32102272727272" y="0" dx="0em" dy="0.95em" style="text-anchor: middle; visibility: inherit; font-family: &quot;Helvetica Neue&quot;, sans-serif; font-size: 12px; font-weight: 200;" fill="rgb(33, 33, 33)" stroke="none" stroke-width="1px">1k</text><text x="105.76136363636364" y="0" dx="0em" dy="0.95em" style="text-anchor: middle; visibility: inherit; font-family: &quot;Helvetica Neue&quot;, sans-serif; font-size: 12px; font-weight: 200;" fill="rgb(33, 33, 33)" stroke="none" stroke-width="1px">1.5k</text><text x="132.20170454545453" y="0" dx="0em" dy="0.95em" style="text-anchor: middle; visibility: inherit; font-family: &quot;Helvetica Neue&quot;, sans-serif; font-size: 12px; font-weight: 200;" fill="rgb(33, 33, 33)" stroke="none" stroke-width="1px">2k</text><text x="158.64204545454544" y="0" dx="0em" dy="0.95em" style="text-anchor: middle; visibility: inherit; font-family: &quot;Helvetica Neue&quot;, sans-serif; font-size: 12px; font-weight: 200;" fill="rgb(33, 33, 33)" stroke="none" stroke-width="1px">2.5k</text><text x="185.08238636363637" y="0" dx="0em" dy="0.95em" style="text-anchor: middle; visibility: inherit; font-family: &quot;Helvetica Neue&quot;, sans-serif; font-size: 12px; font-weight: 200;" fill="rgb(33, 33, 33)" stroke="none" stroke-width="1px">3k</text><text x="211.52272727272728" y="0" dx="0em" dy="0.95em" style="text-anchor: middle; visibility: inherit; font-family: &quot;Helvetica Neue&quot;, sans-serif; font-size: 12px; font-weight: 200;" fill="rgb(33, 33, 33)" stroke="none" stroke-width="1px">3.5k</text><text x="237.9630681818182" y="0" dx="0em" dy="0.95em" style="text-anchor: middle; visibility: inherit; font-family: &quot;Helvetica Neue&quot;, sans-serif; font-size: 12px; font-weight: 200;" fill="rgb(33, 33, 33)" stroke="none" stroke-width="1px">4k</text><text x="264.40340909090907" y="0" dx="0em" dy="0.95em" style="text-anchor: middle; visibility: inherit; font-family: &quot;Helvetica Neue&quot;, sans-serif; font-size: 12px; font-weight: 200;" fill="rgb(33, 33, 33)" stroke="none" stroke-width="1px">4.5k</text><text x="290.84375" y="0" dx="0em" dy="0.95em" style="text-anchor: middle; visibility: hidden; font-family: &quot;Helvetica Neue&quot;, sans-serif; font-size: 12px; font-weight: 200;" fill="rgb(33, 33, 33)" stroke="none" stroke-width="1px">5k</text></g><line x1="0" y1="0" x2="290.84375" y2="0" fill="rgb(0, 0, 0)" stroke="rgb(204, 204, 204)" stroke-width="1px"></line></g></g></g></g></svg>